<mxfile host="app.diagrams.net" modified="2024-06-04T10:21:37.351Z" agent="Mozilla/5.0 (Windows NT 10.0; Win64; x64; rv:126.0) Gecko/20100101 Firefox/126.0" etag="5nzRmnFVJ7UogquDp-ZE" version="24.3.1" type="google">
  <diagram id="C5RBs43oDa-KdzZeNtuy" name="Page-1">
    <mxGraphModel grid="1" page="1" gridSize="10" guides="1" tooltips="1" connect="1" arrows="1" fold="1" pageScale="1" pageWidth="827" pageHeight="1169" math="0" shadow="0">
      <root>
        <mxCell id="WIyWlLk6GJQsqaUBKTNV-0" />
        <mxCell id="WIyWlLk6GJQsqaUBKTNV-1" parent="WIyWlLk6GJQsqaUBKTNV-0" />
        <mxCell id="GhVb0lr2hPTQbNGFvCIb-72" style="edgeStyle=orthogonalEdgeStyle;rounded=0;orthogonalLoop=1;jettySize=auto;html=1;exitX=0.5;exitY=1;exitDx=0;exitDy=0;entryX=0.5;entryY=0;entryDx=0;entryDy=0;" edge="1" parent="WIyWlLk6GJQsqaUBKTNV-1" source="GhVb0lr2hPTQbNGFvCIb-1" target="GhVb0lr2hPTQbNGFvCIb-8">
          <mxGeometry relative="1" as="geometry" />
        </mxCell>
        <mxCell id="GhVb0lr2hPTQbNGFvCIb-1" value="Person" style="swimlane;fontStyle=0;childLayout=stackLayout;horizontal=1;startSize=30;horizontalStack=0;resizeParent=1;resizeParentMax=0;resizeLast=0;collapsible=1;marginBottom=0;whiteSpace=wrap;html=1;" vertex="1" parent="WIyWlLk6GJQsqaUBKTNV-1">
          <mxGeometry x="90" y="120" width="140" height="210" as="geometry" />
        </mxCell>
        <mxCell id="GhVb0lr2hPTQbNGFvCIb-2" value="int PersonId" style="text;strokeColor=none;fillColor=none;align=left;verticalAlign=middle;spacingLeft=4;spacingRight=4;overflow=hidden;points=[[0,0.5],[1,0.5]];portConstraint=eastwest;rotatable=0;whiteSpace=wrap;html=1;" vertex="1" parent="GhVb0lr2hPTQbNGFvCIb-1">
          <mxGeometry y="30" width="140" height="30" as="geometry" />
        </mxCell>
        <mxCell id="GhVb0lr2hPTQbNGFvCIb-3" value="string Navn" style="text;strokeColor=none;fillColor=none;align=left;verticalAlign=middle;spacingLeft=4;spacingRight=4;overflow=hidden;points=[[0,0.5],[1,0.5]];portConstraint=eastwest;rotatable=0;whiteSpace=wrap;html=1;" vertex="1" parent="GhVb0lr2hPTQbNGFvCIb-1">
          <mxGeometry y="60" width="140" height="30" as="geometry" />
        </mxCell>
        <mxCell id="GhVb0lr2hPTQbNGFvCIb-4" value="string Fornavn" style="text;strokeColor=none;fillColor=none;align=left;verticalAlign=middle;spacingLeft=4;spacingRight=4;overflow=hidden;points=[[0,0.5],[1,0.5]];portConstraint=eastwest;rotatable=0;whiteSpace=wrap;html=1;" vertex="1" parent="GhVb0lr2hPTQbNGFvCIb-1">
          <mxGeometry y="90" width="140" height="30" as="geometry" />
        </mxCell>
        <mxCell id="GhVb0lr2hPTQbNGFvCIb-5" value="string Efternavn" style="text;strokeColor=none;fillColor=none;align=left;verticalAlign=middle;spacingLeft=4;spacingRight=4;overflow=hidden;points=[[0,0.5],[1,0.5]];portConstraint=eastwest;rotatable=0;whiteSpace=wrap;html=1;" vertex="1" parent="GhVb0lr2hPTQbNGFvCIb-1">
          <mxGeometry y="120" width="140" height="30" as="geometry" />
        </mxCell>
        <mxCell id="GhVb0lr2hPTQbNGFvCIb-6" value="string Tlfnummer" style="text;strokeColor=none;fillColor=none;align=left;verticalAlign=middle;spacingLeft=4;spacingRight=4;overflow=hidden;points=[[0,0.5],[1,0.5]];portConstraint=eastwest;rotatable=0;whiteSpace=wrap;html=1;" vertex="1" parent="GhVb0lr2hPTQbNGFvCIb-1">
          <mxGeometry y="150" width="140" height="30" as="geometry" />
        </mxCell>
        <mxCell id="GhVb0lr2hPTQbNGFvCIb-7" value="string Mail" style="text;strokeColor=none;fillColor=none;align=left;verticalAlign=middle;spacingLeft=4;spacingRight=4;overflow=hidden;points=[[0,0.5],[1,0.5]];portConstraint=eastwest;rotatable=0;whiteSpace=wrap;html=1;" vertex="1" parent="GhVb0lr2hPTQbNGFvCIb-1">
          <mxGeometry y="180" width="140" height="30" as="geometry" />
        </mxCell>
        <mxCell id="GhVb0lr2hPTQbNGFvCIb-73" style="edgeStyle=orthogonalEdgeStyle;rounded=0;orthogonalLoop=1;jettySize=auto;html=1;exitX=0.5;exitY=1;exitDx=0;exitDy=0;entryX=0.5;entryY=0;entryDx=0;entryDy=0;" edge="1" parent="WIyWlLk6GJQsqaUBKTNV-1" source="GhVb0lr2hPTQbNGFvCIb-8" target="GhVb0lr2hPTQbNGFvCIb-12">
          <mxGeometry relative="1" as="geometry" />
        </mxCell>
        <mxCell id="GhVb0lr2hPTQbNGFvCIb-8" value="&lt;div&gt;Addresse&lt;/div&gt;" style="swimlane;fontStyle=0;childLayout=stackLayout;horizontal=1;startSize=30;horizontalStack=0;resizeParent=1;resizeParentMax=0;resizeLast=0;collapsible=1;marginBottom=0;whiteSpace=wrap;html=1;" vertex="1" parent="WIyWlLk6GJQsqaUBKTNV-1">
          <mxGeometry x="90" y="420" width="140" height="90" as="geometry" />
        </mxCell>
        <mxCell id="GhVb0lr2hPTQbNGFvCIb-9" value="int AddressId" style="text;strokeColor=none;fillColor=none;align=left;verticalAlign=middle;spacingLeft=4;spacingRight=4;overflow=hidden;points=[[0,0.5],[1,0.5]];portConstraint=eastwest;rotatable=0;whiteSpace=wrap;html=1;" vertex="1" parent="GhVb0lr2hPTQbNGFvCIb-8">
          <mxGeometry y="30" width="140" height="30" as="geometry" />
        </mxCell>
        <mxCell id="GhVb0lr2hPTQbNGFvCIb-10" value="string Addresser" style="text;strokeColor=none;fillColor=none;align=left;verticalAlign=middle;spacingLeft=4;spacingRight=4;overflow=hidden;points=[[0,0.5],[1,0.5]];portConstraint=eastwest;rotatable=0;whiteSpace=wrap;html=1;" vertex="1" parent="GhVb0lr2hPTQbNGFvCIb-8">
          <mxGeometry y="60" width="140" height="30" as="geometry" />
        </mxCell>
        <mxCell id="GhVb0lr2hPTQbNGFvCIb-69" style="edgeStyle=orthogonalEdgeStyle;rounded=0;orthogonalLoop=1;jettySize=auto;html=1;exitX=0.5;exitY=1;exitDx=0;exitDy=0;entryX=0.5;entryY=0;entryDx=0;entryDy=0;" edge="1" parent="WIyWlLk6GJQsqaUBKTNV-1" source="GhVb0lr2hPTQbNGFvCIb-12" target="GhVb0lr2hPTQbNGFvCIb-66">
          <mxGeometry relative="1" as="geometry" />
        </mxCell>
        <mxCell id="GhVb0lr2hPTQbNGFvCIb-12" value="Kunde" style="swimlane;fontStyle=0;childLayout=stackLayout;horizontal=1;startSize=30;horizontalStack=0;resizeParent=1;resizeParentMax=0;resizeLast=0;collapsible=1;marginBottom=0;whiteSpace=wrap;html=1;" vertex="1" parent="WIyWlLk6GJQsqaUBKTNV-1">
          <mxGeometry x="90" y="570" width="140" height="120" as="geometry" />
        </mxCell>
        <mxCell id="GhVb0lr2hPTQbNGFvCIb-13" value="int Kundenummer" style="text;strokeColor=none;fillColor=none;align=left;verticalAlign=middle;spacingLeft=4;spacingRight=4;overflow=hidden;points=[[0,0.5],[1,0.5]];portConstraint=eastwest;rotatable=0;whiteSpace=wrap;html=1;" vertex="1" parent="GhVb0lr2hPTQbNGFvCIb-12">
          <mxGeometry y="30" width="140" height="30" as="geometry" />
        </mxCell>
        <mxCell id="NJOmPVF6yk7OS6XoPjgK-43" value="Datetime Dato" style="text;strokeColor=none;fillColor=none;align=left;verticalAlign=middle;spacingLeft=4;spacingRight=4;overflow=hidden;points=[[0,0.5],[1,0.5]];portConstraint=eastwest;rotatable=0;whiteSpace=wrap;html=1;" vertex="1" parent="GhVb0lr2hPTQbNGFvCIb-12">
          <mxGeometry y="60" width="140" height="30" as="geometry" />
        </mxCell>
        <mxCell id="GhVb0lr2hPTQbNGFvCIb-14" value="Datetime Dato" style="text;strokeColor=none;fillColor=none;align=left;verticalAlign=middle;spacingLeft=4;spacingRight=4;overflow=hidden;points=[[0,0.5],[1,0.5]];portConstraint=eastwest;rotatable=0;whiteSpace=wrap;html=1;" vertex="1" parent="GhVb0lr2hPTQbNGFvCIb-12">
          <mxGeometry y="90" width="140" height="30" as="geometry" />
        </mxCell>
        <mxCell id="GhVb0lr2hPTQbNGFvCIb-98" style="edgeStyle=orthogonalEdgeStyle;rounded=0;orthogonalLoop=1;jettySize=auto;html=1;exitX=0.5;exitY=1;exitDx=0;exitDy=0;entryX=0;entryY=0.5;entryDx=0;entryDy=0;" edge="1" parent="WIyWlLk6GJQsqaUBKTNV-1" source="GhVb0lr2hPTQbNGFvCIb-18" target="GhVb0lr2hPTQbNGFvCIb-78">
          <mxGeometry relative="1" as="geometry" />
        </mxCell>
        <mxCell id="GhVb0lr2hPTQbNGFvCIb-18" value="&lt;div&gt;Company&lt;/div&gt;" style="swimlane;fontStyle=0;childLayout=stackLayout;horizontal=1;startSize=30;horizontalStack=0;resizeParent=1;resizeParentMax=0;resizeLast=0;collapsible=1;marginBottom=0;whiteSpace=wrap;html=1;" vertex="1" parent="WIyWlLk6GJQsqaUBKTNV-1">
          <mxGeometry x="310" y="270" width="140" height="270" as="geometry">
            <mxRectangle x="310" y="210" width="90" height="30" as="alternateBounds" />
          </mxGeometry>
        </mxCell>
        <mxCell id="GhVb0lr2hPTQbNGFvCIb-19" value="int Id" style="text;strokeColor=none;fillColor=none;align=left;verticalAlign=middle;spacingLeft=4;spacingRight=4;overflow=hidden;points=[[0,0.5],[1,0.5]];portConstraint=eastwest;rotatable=0;whiteSpace=wrap;html=1;" vertex="1" parent="GhVb0lr2hPTQbNGFvCIb-18">
          <mxGeometry y="30" width="140" height="30" as="geometry" />
        </mxCell>
        <mxCell id="GhVb0lr2hPTQbNGFvCIb-20" value="string CompanyName" style="text;strokeColor=none;fillColor=none;align=left;verticalAlign=middle;spacingLeft=4;spacingRight=4;overflow=hidden;points=[[0,0.5],[1,0.5]];portConstraint=eastwest;rotatable=0;whiteSpace=wrap;html=1;" vertex="1" parent="GhVb0lr2hPTQbNGFvCIb-18">
          <mxGeometry y="60" width="140" height="30" as="geometry" />
        </mxCell>
        <mxCell id="GhVb0lr2hPTQbNGFvCIb-21" value="string Land" style="text;strokeColor=none;fillColor=none;align=left;verticalAlign=middle;spacingLeft=4;spacingRight=4;overflow=hidden;points=[[0,0.5],[1,0.5]];portConstraint=eastwest;rotatable=0;whiteSpace=wrap;html=1;" vertex="1" parent="GhVb0lr2hPTQbNGFvCIb-18">
          <mxGeometry y="90" width="140" height="30" as="geometry" />
        </mxCell>
        <mxCell id="GhVb0lr2hPTQbNGFvCIb-22" value="string By" style="text;strokeColor=none;fillColor=none;align=left;verticalAlign=middle;spacingLeft=4;spacingRight=4;overflow=hidden;points=[[0,0.5],[1,0.5]];portConstraint=eastwest;rotatable=0;whiteSpace=wrap;html=1;" vertex="1" parent="GhVb0lr2hPTQbNGFvCIb-18">
          <mxGeometry y="120" width="140" height="30" as="geometry" />
        </mxCell>
        <mxCell id="GhVb0lr2hPTQbNGFvCIb-23" value="string Vej" style="text;strokeColor=none;fillColor=none;align=left;verticalAlign=middle;spacingLeft=4;spacingRight=4;overflow=hidden;points=[[0,0.5],[1,0.5]];portConstraint=eastwest;rotatable=0;whiteSpace=wrap;html=1;" vertex="1" parent="GhVb0lr2hPTQbNGFvCIb-18">
          <mxGeometry y="150" width="140" height="30" as="geometry" />
        </mxCell>
        <mxCell id="GhVb0lr2hPTQbNGFvCIb-24" value="string Husnummer" style="text;strokeColor=none;fillColor=none;align=left;verticalAlign=middle;spacingLeft=4;spacingRight=4;overflow=hidden;points=[[0,0.5],[1,0.5]];portConstraint=eastwest;rotatable=0;whiteSpace=wrap;html=1;" vertex="1" parent="GhVb0lr2hPTQbNGFvCIb-18">
          <mxGeometry y="180" width="140" height="30" as="geometry" />
        </mxCell>
        <mxCell id="GhVb0lr2hPTQbNGFvCIb-25" value="string Postnummer" style="text;strokeColor=none;fillColor=none;align=left;verticalAlign=middle;spacingLeft=4;spacingRight=4;overflow=hidden;points=[[0,0.5],[1,0.5]];portConstraint=eastwest;rotatable=0;whiteSpace=wrap;html=1;" vertex="1" parent="GhVb0lr2hPTQbNGFvCIb-18">
          <mxGeometry y="210" width="140" height="30" as="geometry" />
        </mxCell>
        <mxCell id="GhVb0lr2hPTQbNGFvCIb-26" value="Currency.Valuta Money" style="text;strokeColor=none;fillColor=none;align=left;verticalAlign=middle;spacingLeft=4;spacingRight=4;overflow=hidden;points=[[0,0.5],[1,0.5]];portConstraint=eastwest;rotatable=0;whiteSpace=wrap;html=1;" vertex="1" parent="GhVb0lr2hPTQbNGFvCIb-18">
          <mxGeometry y="240" width="140" height="30" as="geometry" />
        </mxCell>
        <mxCell id="GhVb0lr2hPTQbNGFvCIb-113" style="edgeStyle=orthogonalEdgeStyle;rounded=0;orthogonalLoop=1;jettySize=auto;html=1;exitX=0.5;exitY=1;exitDx=0;exitDy=0;entryX=0;entryY=0.5;entryDx=0;entryDy=0;" edge="1" parent="WIyWlLk6GJQsqaUBKTNV-1" source="GhVb0lr2hPTQbNGFvCIb-32" target="GhVb0lr2hPTQbNGFvCIb-107">
          <mxGeometry relative="1" as="geometry">
            <Array as="points">
              <mxPoint x="740" y="780" />
            </Array>
          </mxGeometry>
        </mxCell>
        <mxCell id="GhVb0lr2hPTQbNGFvCIb-32" value="Produkt" style="swimlane;fontStyle=0;childLayout=stackLayout;horizontal=1;startSize=30;horizontalStack=0;resizeParent=1;resizeParentMax=0;resizeLast=0;collapsible=1;marginBottom=0;whiteSpace=wrap;html=1;" vertex="1" parent="WIyWlLk6GJQsqaUBKTNV-1">
          <mxGeometry x="670" y="270" width="140" height="360" as="geometry" />
        </mxCell>
        <mxCell id="GhVb0lr2hPTQbNGFvCIb-33" value="int ProduktId" style="text;strokeColor=none;fillColor=none;align=left;verticalAlign=middle;spacingLeft=4;spacingRight=4;overflow=hidden;points=[[0,0.5],[1,0.5]];portConstraint=eastwest;rotatable=0;whiteSpace=wrap;html=1;" vertex="1" parent="GhVb0lr2hPTQbNGFvCIb-32">
          <mxGeometry y="30" width="140" height="30" as="geometry" />
        </mxCell>
        <mxCell id="GhVb0lr2hPTQbNGFvCIb-34" value="int Varenummer " style="text;strokeColor=none;fillColor=none;align=left;verticalAlign=middle;spacingLeft=4;spacingRight=4;overflow=hidden;points=[[0,0.5],[1,0.5]];portConstraint=eastwest;rotatable=0;whiteSpace=wrap;html=1;" vertex="1" parent="GhVb0lr2hPTQbNGFvCIb-32">
          <mxGeometry y="60" width="140" height="30" as="geometry" />
        </mxCell>
        <mxCell id="GhVb0lr2hPTQbNGFvCIb-35" value="string Navn" style="text;strokeColor=none;fillColor=none;align=left;verticalAlign=middle;spacingLeft=4;spacingRight=4;overflow=hidden;points=[[0,0.5],[1,0.5]];portConstraint=eastwest;rotatable=0;whiteSpace=wrap;html=1;" vertex="1" parent="GhVb0lr2hPTQbNGFvCIb-32">
          <mxGeometry y="90" width="140" height="30" as="geometry" />
        </mxCell>
        <mxCell id="GhVb0lr2hPTQbNGFvCIb-49" value="string Beskrivelse" style="text;strokeColor=none;fillColor=none;align=left;verticalAlign=middle;spacingLeft=4;spacingRight=4;overflow=hidden;points=[[0,0.5],[1,0.5]];portConstraint=eastwest;rotatable=0;whiteSpace=wrap;html=1;" vertex="1" parent="GhVb0lr2hPTQbNGFvCIb-32">
          <mxGeometry y="120" width="140" height="30" as="geometry" />
        </mxCell>
        <mxCell id="GhVb0lr2hPTQbNGFvCIb-50" value="decimal Salgspris" style="text;strokeColor=none;fillColor=none;align=left;verticalAlign=middle;spacingLeft=4;spacingRight=4;overflow=hidden;points=[[0,0.5],[1,0.5]];portConstraint=eastwest;rotatable=0;whiteSpace=wrap;html=1;" vertex="1" parent="GhVb0lr2hPTQbNGFvCIb-32">
          <mxGeometry y="150" width="140" height="30" as="geometry" />
        </mxCell>
        <mxCell id="GhVb0lr2hPTQbNGFvCIb-51" value="decimal Indkoebspris" style="text;strokeColor=none;fillColor=none;align=left;verticalAlign=middle;spacingLeft=4;spacingRight=4;overflow=hidden;points=[[0,0.5],[1,0.5]];portConstraint=eastwest;rotatable=0;whiteSpace=wrap;html=1;" vertex="1" parent="GhVb0lr2hPTQbNGFvCIb-32">
          <mxGeometry y="180" width="140" height="30" as="geometry" />
        </mxCell>
        <mxCell id="GhVb0lr2hPTQbNGFvCIb-52" value="string Lokation" style="text;strokeColor=none;fillColor=none;align=left;verticalAlign=middle;spacingLeft=4;spacingRight=4;overflow=hidden;points=[[0,0.5],[1,0.5]];portConstraint=eastwest;rotatable=0;whiteSpace=wrap;html=1;" vertex="1" parent="GhVb0lr2hPTQbNGFvCIb-32">
          <mxGeometry y="210" width="140" height="30" as="geometry" />
        </mxCell>
        <mxCell id="GhVb0lr2hPTQbNGFvCIb-53" value="decimal Antalpaalager" style="text;strokeColor=none;fillColor=none;align=left;verticalAlign=middle;spacingLeft=4;spacingRight=4;overflow=hidden;points=[[0,0.5],[1,0.5]];portConstraint=eastwest;rotatable=0;whiteSpace=wrap;html=1;" vertex="1" parent="GhVb0lr2hPTQbNGFvCIb-32">
          <mxGeometry y="240" width="140" height="30" as="geometry" />
        </mxCell>
        <mxCell id="GhVb0lr2hPTQbNGFvCIb-54" value="Enhed Enhed" style="text;strokeColor=none;fillColor=none;align=left;verticalAlign=middle;spacingLeft=4;spacingRight=4;overflow=hidden;points=[[0,0.5],[1,0.5]];portConstraint=eastwest;rotatable=0;whiteSpace=wrap;html=1;" vertex="1" parent="GhVb0lr2hPTQbNGFvCIb-32">
          <mxGeometry y="270" width="140" height="30" as="geometry" />
        </mxCell>
        <mxCell id="GhVb0lr2hPTQbNGFvCIb-55" value="decimal Avance" style="text;strokeColor=none;fillColor=none;align=left;verticalAlign=middle;spacingLeft=4;spacingRight=4;overflow=hidden;points=[[0,0.5],[1,0.5]];portConstraint=eastwest;rotatable=0;whiteSpace=wrap;html=1;" vertex="1" parent="GhVb0lr2hPTQbNGFvCIb-32">
          <mxGeometry y="300" width="140" height="30" as="geometry" />
        </mxCell>
        <mxCell id="GhVb0lr2hPTQbNGFvCIb-56" value="decimal Fortjeneste" style="text;strokeColor=none;fillColor=none;align=left;verticalAlign=middle;spacingLeft=4;spacingRight=4;overflow=hidden;points=[[0,0.5],[1,0.5]];portConstraint=eastwest;rotatable=0;whiteSpace=wrap;html=1;" vertex="1" parent="GhVb0lr2hPTQbNGFvCIb-32">
          <mxGeometry y="330" width="140" height="30" as="geometry" />
        </mxCell>
        <mxCell id="GhVb0lr2hPTQbNGFvCIb-100" style="edgeStyle=orthogonalEdgeStyle;rounded=0;orthogonalLoop=1;jettySize=auto;html=1;exitX=0.5;exitY=1;exitDx=0;exitDy=0;entryX=0;entryY=0.5;entryDx=0;entryDy=0;" edge="1" parent="WIyWlLk6GJQsqaUBKTNV-1" source="GhVb0lr2hPTQbNGFvCIb-36" target="GhVb0lr2hPTQbNGFvCIb-92">
          <mxGeometry relative="1" as="geometry" />
        </mxCell>
        <mxCell id="GhVb0lr2hPTQbNGFvCIb-36" value="SalgsordreHoved" style="swimlane;fontStyle=0;childLayout=stackLayout;horizontal=1;startSize=30;horizontalStack=0;resizeParent=1;resizeParentMax=0;resizeLast=0;collapsible=1;marginBottom=0;whiteSpace=wrap;html=1;" vertex="1" parent="WIyWlLk6GJQsqaUBKTNV-1">
          <mxGeometry x="490" y="270" width="140" height="300" as="geometry" />
        </mxCell>
        <mxCell id="GhVb0lr2hPTQbNGFvCIb-37" value="int Ordernummer" style="text;strokeColor=none;fillColor=none;align=left;verticalAlign=middle;spacingLeft=4;spacingRight=4;overflow=hidden;points=[[0,0.5],[1,0.5]];portConstraint=eastwest;rotatable=0;whiteSpace=wrap;html=1;" vertex="1" parent="GhVb0lr2hPTQbNGFvCIb-36">
          <mxGeometry y="30" width="140" height="30" as="geometry" />
        </mxCell>
        <mxCell id="GhVb0lr2hPTQbNGFvCIb-38" value="Datetime Oprettelsestidspunkt" style="text;strokeColor=none;fillColor=none;align=left;verticalAlign=middle;spacingLeft=4;spacingRight=4;overflow=hidden;points=[[0,0.5],[1,0.5]];portConstraint=eastwest;rotatable=0;whiteSpace=wrap;html=1;" vertex="1" parent="GhVb0lr2hPTQbNGFvCIb-36">
          <mxGeometry y="60" width="140" height="30" as="geometry" />
        </mxCell>
        <mxCell id="GhVb0lr2hPTQbNGFvCIb-39" value="DateTime Gennemførelsestidspunkt" style="text;strokeColor=none;fillColor=none;align=left;verticalAlign=middle;spacingLeft=4;spacingRight=4;overflow=hidden;points=[[0,0.5],[1,0.5]];portConstraint=eastwest;rotatable=0;whiteSpace=wrap;html=1;" vertex="1" parent="GhVb0lr2hPTQbNGFvCIb-36">
          <mxGeometry y="90" width="140" height="30" as="geometry" />
        </mxCell>
        <mxCell id="GhVb0lr2hPTQbNGFvCIb-40" value="int Kundenummer" style="text;strokeColor=none;fillColor=none;align=left;verticalAlign=middle;spacingLeft=4;spacingRight=4;overflow=hidden;points=[[0,0.5],[1,0.5]];portConstraint=eastwest;rotatable=0;whiteSpace=wrap;html=1;" vertex="1" parent="GhVb0lr2hPTQbNGFvCIb-36">
          <mxGeometry y="120" width="140" height="30" as="geometry" />
        </mxCell>
        <mxCell id="GhVb0lr2hPTQbNGFvCIb-41" value="Tilstand Tilstand" style="text;strokeColor=none;fillColor=none;align=left;verticalAlign=middle;spacingLeft=4;spacingRight=4;overflow=hidden;points=[[0,0.5],[1,0.5]];portConstraint=eastwest;rotatable=0;whiteSpace=wrap;html=1;" vertex="1" parent="GhVb0lr2hPTQbNGFvCIb-36">
          <mxGeometry y="150" width="140" height="30" as="geometry" />
        </mxCell>
        <mxCell id="GhVb0lr2hPTQbNGFvCIb-42" value="List&amp;lt;string&amp;gt; Ordrelinjer = new List&amp;lt;string&amp;gt;();" style="text;strokeColor=none;fillColor=none;align=left;verticalAlign=middle;spacingLeft=4;spacingRight=4;overflow=hidden;points=[[0,0.5],[1,0.5]];portConstraint=eastwest;rotatable=0;whiteSpace=wrap;html=1;" vertex="1" parent="GhVb0lr2hPTQbNGFvCIb-36">
          <mxGeometry y="180" width="140" height="30" as="geometry" />
        </mxCell>
        <mxCell id="GhVb0lr2hPTQbNGFvCIb-43" value="decimal Ordrebeløb" style="text;strokeColor=none;fillColor=none;align=left;verticalAlign=middle;spacingLeft=4;spacingRight=4;overflow=hidden;points=[[0,0.5],[1,0.5]];portConstraint=eastwest;rotatable=0;whiteSpace=wrap;html=1;" vertex="1" parent="GhVb0lr2hPTQbNGFvCIb-36">
          <mxGeometry y="210" width="140" height="30" as="geometry" />
        </mxCell>
        <mxCell id="GhVb0lr2hPTQbNGFvCIb-44" value="string Kundenavn" style="text;strokeColor=none;fillColor=none;align=left;verticalAlign=middle;spacingLeft=4;spacingRight=4;overflow=hidden;points=[[0,0.5],[1,0.5]];portConstraint=eastwest;rotatable=0;whiteSpace=wrap;html=1;" vertex="1" parent="GhVb0lr2hPTQbNGFvCIb-36">
          <mxGeometry y="240" width="140" height="30" as="geometry" />
        </mxCell>
        <mxCell id="GhVb0lr2hPTQbNGFvCIb-45" value="DateTime Dato" style="text;strokeColor=none;fillColor=none;align=left;verticalAlign=middle;spacingLeft=4;spacingRight=4;overflow=hidden;points=[[0,0.5],[1,0.5]];portConstraint=eastwest;rotatable=0;whiteSpace=wrap;html=1;" vertex="1" parent="GhVb0lr2hPTQbNGFvCIb-36">
          <mxGeometry y="270" width="140" height="30" as="geometry" />
        </mxCell>
        <mxCell id="GhVb0lr2hPTQbNGFvCIb-80" style="edgeStyle=orthogonalEdgeStyle;rounded=0;orthogonalLoop=1;jettySize=auto;html=1;exitX=0;exitY=0.5;exitDx=0;exitDy=0;entryX=0;entryY=0.5;entryDx=0;entryDy=0;" edge="1" parent="WIyWlLk6GJQsqaUBKTNV-1" source="GhVb0lr2hPTQbNGFvCIb-46" target="GhVb0lr2hPTQbNGFvCIb-41">
          <mxGeometry relative="1" as="geometry" />
        </mxCell>
        <mxCell id="GhVb0lr2hPTQbNGFvCIb-46" value="&lt;div&gt;public enum Tilstand&lt;/div&gt;&lt;div align=&quot;left&quot;&gt;&amp;nbsp;{&lt;/div&gt;&lt;div align=&quot;left&quot;&gt;&amp;nbsp;&amp;nbsp;&amp;nbsp;&amp;nbsp; Ingen,&lt;br&gt;&amp;nbsp;&amp;nbsp;&amp;nbsp;&amp;nbsp; Oprettet,&lt;br&gt;&amp;nbsp;&amp;nbsp;&amp;nbsp;&amp;nbsp; Bekræftet,&lt;br&gt;&amp;nbsp;&amp;nbsp;&amp;nbsp;&amp;nbsp; Pakket,&lt;br&gt;&amp;nbsp;&amp;nbsp;&amp;nbsp;&amp;nbsp; Færdig&lt;br&gt;&amp;nbsp;}&lt;/div&gt;" style="rounded=0;whiteSpace=wrap;html=1;" vertex="1" parent="WIyWlLk6GJQsqaUBKTNV-1">
          <mxGeometry x="490" y="120" width="120" height="140" as="geometry" />
        </mxCell>
        <mxCell id="GhVb0lr2hPTQbNGFvCIb-79" style="edgeStyle=orthogonalEdgeStyle;rounded=0;orthogonalLoop=1;jettySize=auto;html=1;exitX=0;exitY=0.5;exitDx=0;exitDy=0;entryX=0;entryY=0.5;entryDx=0;entryDy=0;" edge="1" parent="WIyWlLk6GJQsqaUBKTNV-1" source="GhVb0lr2hPTQbNGFvCIb-59" target="GhVb0lr2hPTQbNGFvCIb-54">
          <mxGeometry relative="1" as="geometry">
            <mxPoint x="650" y="560" as="targetPoint" />
          </mxGeometry>
        </mxCell>
        <mxCell id="GhVb0lr2hPTQbNGFvCIb-59" value="public enum Enhed&lt;br&gt;&lt;div align=&quot;left&quot;&gt;{&lt;br&gt;&amp;nbsp;&amp;nbsp;&amp;nbsp; Styk,&lt;br&gt;&amp;nbsp;&amp;nbsp;&amp;nbsp; Timer,&lt;br&gt;&amp;nbsp;&amp;nbsp;&amp;nbsp; Meter&lt;br&gt;}&lt;br&gt;&lt;/div&gt;" style="rounded=0;whiteSpace=wrap;html=1;" vertex="1" parent="WIyWlLk6GJQsqaUBKTNV-1">
          <mxGeometry x="690" y="120" width="120" height="110" as="geometry" />
        </mxCell>
        <mxCell id="GhVb0lr2hPTQbNGFvCIb-71" style="edgeStyle=orthogonalEdgeStyle;rounded=0;orthogonalLoop=1;jettySize=auto;html=1;exitX=0.5;exitY=1;exitDx=0;exitDy=0;entryX=0.5;entryY=0;entryDx=0;entryDy=0;" edge="1" parent="WIyWlLk6GJQsqaUBKTNV-1" source="GhVb0lr2hPTQbNGFvCIb-65" target="GhVb0lr2hPTQbNGFvCIb-67">
          <mxGeometry relative="1" as="geometry" />
        </mxCell>
        <mxCell id="GhVb0lr2hPTQbNGFvCIb-65" value="KundeEdit" style="rounded=0;whiteSpace=wrap;html=1;" vertex="1" parent="WIyWlLk6GJQsqaUBKTNV-1">
          <mxGeometry x="100" y="870" width="120" height="60" as="geometry" />
        </mxCell>
        <mxCell id="GhVb0lr2hPTQbNGFvCIb-70" style="edgeStyle=orthogonalEdgeStyle;rounded=0;orthogonalLoop=1;jettySize=auto;html=1;exitX=0.5;exitY=1;exitDx=0;exitDy=0;entryX=0.5;entryY=0;entryDx=0;entryDy=0;" edge="1" parent="WIyWlLk6GJQsqaUBKTNV-1" source="GhVb0lr2hPTQbNGFvCIb-66" target="GhVb0lr2hPTQbNGFvCIb-65">
          <mxGeometry relative="1" as="geometry" />
        </mxCell>
        <mxCell id="GhVb0lr2hPTQbNGFvCIb-75" style="edgeStyle=orthogonalEdgeStyle;rounded=0;orthogonalLoop=1;jettySize=auto;html=1;exitX=1;exitY=0.5;exitDx=0;exitDy=0;entryX=0;entryY=0.5;entryDx=0;entryDy=0;" edge="1" parent="WIyWlLk6GJQsqaUBKTNV-1" source="GhVb0lr2hPTQbNGFvCIb-66" target="GhVb0lr2hPTQbNGFvCIb-74">
          <mxGeometry relative="1" as="geometry" />
        </mxCell>
        <mxCell id="GhVb0lr2hPTQbNGFvCIb-66" value="KundeList" style="rounded=0;whiteSpace=wrap;html=1;" vertex="1" parent="WIyWlLk6GJQsqaUBKTNV-1">
          <mxGeometry x="100" y="750" width="120" height="60" as="geometry" />
        </mxCell>
        <mxCell id="GhVb0lr2hPTQbNGFvCIb-67" value="&lt;div&gt;Database&lt;br&gt;&lt;/div&gt;&lt;div&gt;KundeData&lt;/div&gt;" style="rounded=0;whiteSpace=wrap;html=1;" vertex="1" parent="WIyWlLk6GJQsqaUBKTNV-1">
          <mxGeometry x="100" y="1000" width="120" height="60" as="geometry" />
        </mxCell>
        <mxCell id="GhVb0lr2hPTQbNGFvCIb-74" value="SelectedKund" style="rounded=0;whiteSpace=wrap;html=1;" vertex="1" parent="WIyWlLk6GJQsqaUBKTNV-1">
          <mxGeometry x="250" y="750" width="120" height="60" as="geometry" />
        </mxCell>
        <mxCell id="GhVb0lr2hPTQbNGFvCIb-76" value="UI " style="text;html=1;align=center;verticalAlign=middle;whiteSpace=wrap;rounded=0;" vertex="1" parent="WIyWlLk6GJQsqaUBKTNV-1">
          <mxGeometry x="160" y="690" width="30" height="30" as="geometry" />
        </mxCell>
        <mxCell id="GhVb0lr2hPTQbNGFvCIb-77" value="Database" style="text;html=1;align=center;verticalAlign=middle;whiteSpace=wrap;rounded=0;" vertex="1" parent="WIyWlLk6GJQsqaUBKTNV-1">
          <mxGeometry x="160" y="950" width="60" height="30" as="geometry" />
        </mxCell>
        <mxCell id="GhVb0lr2hPTQbNGFvCIb-87" style="edgeStyle=orthogonalEdgeStyle;rounded=0;orthogonalLoop=1;jettySize=auto;html=1;exitX=0.5;exitY=1;exitDx=0;exitDy=0;entryX=0.5;entryY=0;entryDx=0;entryDy=0;" edge="1" parent="WIyWlLk6GJQsqaUBKTNV-1" source="GhVb0lr2hPTQbNGFvCIb-78" target="GhVb0lr2hPTQbNGFvCIb-85">
          <mxGeometry relative="1" as="geometry" />
        </mxCell>
        <mxCell id="GhVb0lr2hPTQbNGFvCIb-90" style="edgeStyle=orthogonalEdgeStyle;rounded=0;orthogonalLoop=1;jettySize=auto;html=1;exitX=0.5;exitY=0;exitDx=0;exitDy=0;entryX=0.5;entryY=1;entryDx=0;entryDy=0;" edge="1" parent="WIyWlLk6GJQsqaUBKTNV-1" source="GhVb0lr2hPTQbNGFvCIb-78" target="GhVb0lr2hPTQbNGFvCIb-89">
          <mxGeometry relative="1" as="geometry" />
        </mxCell>
        <mxCell id="GhVb0lr2hPTQbNGFvCIb-78" value="CompanyList" style="rounded=0;whiteSpace=wrap;html=1;" vertex="1" parent="WIyWlLk6GJQsqaUBKTNV-1">
          <mxGeometry x="430" y="750" width="120" height="60" as="geometry" />
        </mxCell>
        <mxCell id="GhVb0lr2hPTQbNGFvCIb-84" style="edgeStyle=orthogonalEdgeStyle;rounded=0;orthogonalLoop=1;jettySize=auto;html=1;exitX=0;exitY=0.5;exitDx=0;exitDy=0;entryX=0;entryY=0.5;entryDx=0;entryDy=0;" edge="1" parent="WIyWlLk6GJQsqaUBKTNV-1" source="GhVb0lr2hPTQbNGFvCIb-82" target="GhVb0lr2hPTQbNGFvCIb-26">
          <mxGeometry relative="1" as="geometry" />
        </mxCell>
        <mxCell id="GhVb0lr2hPTQbNGFvCIb-82" value="public enum Valuta&lt;br&gt;&lt;div align=&quot;left&quot;&gt;{&lt;br&gt;&amp;nbsp;&amp;nbsp;&amp;nbsp; DKK, &lt;br&gt;&amp;nbsp;&amp;nbsp;&amp;nbsp; SEK, &lt;br&gt;&amp;nbsp;&amp;nbsp;&amp;nbsp; USD, &lt;br&gt;&amp;nbsp;&amp;nbsp;&amp;nbsp; EURO &amp;nbsp;&lt;br&gt;}&lt;br&gt;&lt;/div&gt;" style="rounded=0;whiteSpace=wrap;html=1;" vertex="1" parent="WIyWlLk6GJQsqaUBKTNV-1">
          <mxGeometry x="320" y="120" width="120" height="120" as="geometry" />
        </mxCell>
        <mxCell id="GhVb0lr2hPTQbNGFvCIb-88" style="edgeStyle=orthogonalEdgeStyle;rounded=0;orthogonalLoop=1;jettySize=auto;html=1;exitX=0.5;exitY=1;exitDx=0;exitDy=0;entryX=0.5;entryY=0;entryDx=0;entryDy=0;" edge="1" parent="WIyWlLk6GJQsqaUBKTNV-1" source="GhVb0lr2hPTQbNGFvCIb-85" target="GhVb0lr2hPTQbNGFvCIb-86">
          <mxGeometry relative="1" as="geometry" />
        </mxCell>
        <mxCell id="GhVb0lr2hPTQbNGFvCIb-85" value="&lt;div&gt;CompanyEdit&lt;/div&gt;" style="rounded=0;whiteSpace=wrap;html=1;" vertex="1" parent="WIyWlLk6GJQsqaUBKTNV-1">
          <mxGeometry x="430" y="870" width="120" height="60" as="geometry" />
        </mxCell>
        <mxCell id="GhVb0lr2hPTQbNGFvCIb-86" value="&lt;div&gt;Database&lt;/div&gt;&lt;div&gt;CompanyData&lt;br&gt;&lt;/div&gt;" style="rounded=0;whiteSpace=wrap;html=1;" vertex="1" parent="WIyWlLk6GJQsqaUBKTNV-1">
          <mxGeometry x="430" y="1000" width="120" height="60" as="geometry" />
        </mxCell>
        <mxCell id="GhVb0lr2hPTQbNGFvCIb-89" value="SelectedCompany" style="rounded=0;whiteSpace=wrap;html=1;" vertex="1" parent="WIyWlLk6GJQsqaUBKTNV-1">
          <mxGeometry x="430" y="660" width="120" height="60" as="geometry" />
        </mxCell>
        <mxCell id="GhVb0lr2hPTQbNGFvCIb-91" value="SelectedSalgsorder" style="rounded=0;whiteSpace=wrap;html=1;" vertex="1" parent="WIyWlLk6GJQsqaUBKTNV-1">
          <mxGeometry x="590" y="660" width="120" height="60" as="geometry" />
        </mxCell>
        <mxCell id="GhVb0lr2hPTQbNGFvCIb-101" style="edgeStyle=orthogonalEdgeStyle;rounded=0;orthogonalLoop=1;jettySize=auto;html=1;exitX=0.5;exitY=0;exitDx=0;exitDy=0;entryX=0.5;entryY=1;entryDx=0;entryDy=0;" edge="1" parent="WIyWlLk6GJQsqaUBKTNV-1" source="GhVb0lr2hPTQbNGFvCIb-92" target="GhVb0lr2hPTQbNGFvCIb-91">
          <mxGeometry relative="1" as="geometry" />
        </mxCell>
        <mxCell id="GhVb0lr2hPTQbNGFvCIb-102" style="edgeStyle=orthogonalEdgeStyle;rounded=0;orthogonalLoop=1;jettySize=auto;html=1;exitX=0.5;exitY=1;exitDx=0;exitDy=0;entryX=0.5;entryY=0;entryDx=0;entryDy=0;" edge="1" parent="WIyWlLk6GJQsqaUBKTNV-1" source="GhVb0lr2hPTQbNGFvCIb-92" target="GhVb0lr2hPTQbNGFvCIb-93">
          <mxGeometry relative="1" as="geometry" />
        </mxCell>
        <mxCell id="GhVb0lr2hPTQbNGFvCIb-92" value="Salgsdordrelists" style="rounded=0;whiteSpace=wrap;html=1;" vertex="1" parent="WIyWlLk6GJQsqaUBKTNV-1">
          <mxGeometry x="590" y="750" width="120" height="60" as="geometry" />
        </mxCell>
        <mxCell id="GhVb0lr2hPTQbNGFvCIb-103" style="edgeStyle=orthogonalEdgeStyle;rounded=0;orthogonalLoop=1;jettySize=auto;html=1;exitX=0.5;exitY=1;exitDx=0;exitDy=0;entryX=0.5;entryY=0;entryDx=0;entryDy=0;" edge="1" parent="WIyWlLk6GJQsqaUBKTNV-1" source="GhVb0lr2hPTQbNGFvCIb-93" target="GhVb0lr2hPTQbNGFvCIb-94">
          <mxGeometry relative="1" as="geometry" />
        </mxCell>
        <mxCell id="GhVb0lr2hPTQbNGFvCIb-93" value="EditSalgsordrehoved" style="rounded=0;whiteSpace=wrap;html=1;" vertex="1" parent="WIyWlLk6GJQsqaUBKTNV-1">
          <mxGeometry x="590" y="870" width="120" height="60" as="geometry" />
        </mxCell>
        <mxCell id="GhVb0lr2hPTQbNGFvCIb-94" value="&lt;div&gt;Database&lt;br&gt;&lt;/div&gt;&lt;div&gt;SalgsData&lt;/div&gt;" style="rounded=0;whiteSpace=wrap;html=1;" vertex="1" parent="WIyWlLk6GJQsqaUBKTNV-1">
          <mxGeometry x="590" y="1000" width="120" height="60" as="geometry" />
        </mxCell>
        <mxCell id="GhVb0lr2hPTQbNGFvCIb-96" value="UI " style="text;html=1;align=center;verticalAlign=middle;whiteSpace=wrap;rounded=0;" vertex="1" parent="WIyWlLk6GJQsqaUBKTNV-1">
          <mxGeometry x="383.5" y="620" width="30" height="30" as="geometry" />
        </mxCell>
        <mxCell id="GhVb0lr2hPTQbNGFvCIb-99" value="Database" style="text;html=1;align=center;verticalAlign=middle;whiteSpace=wrap;rounded=0;" vertex="1" parent="WIyWlLk6GJQsqaUBKTNV-1">
          <mxGeometry x="490" y="950" width="60" height="30" as="geometry" />
        </mxCell>
        <mxCell id="GhVb0lr2hPTQbNGFvCIb-104" value="Database" style="text;html=1;align=center;verticalAlign=middle;whiteSpace=wrap;rounded=0;" vertex="1" parent="WIyWlLk6GJQsqaUBKTNV-1">
          <mxGeometry x="650" y="950" width="60" height="30" as="geometry" />
        </mxCell>
        <mxCell id="GhVb0lr2hPTQbNGFvCIb-105" value="UI " style="text;html=1;align=center;verticalAlign=middle;whiteSpace=wrap;rounded=0;" vertex="1" parent="WIyWlLk6GJQsqaUBKTNV-1">
          <mxGeometry x="560" y="620" width="30" height="30" as="geometry" />
        </mxCell>
        <mxCell id="GhVb0lr2hPTQbNGFvCIb-106" value="SelectedProduct" style="rounded=0;whiteSpace=wrap;html=1;" vertex="1" parent="WIyWlLk6GJQsqaUBKTNV-1">
          <mxGeometry x="750" y="660" width="120" height="60" as="geometry" />
        </mxCell>
        <mxCell id="GhVb0lr2hPTQbNGFvCIb-111" style="edgeStyle=orthogonalEdgeStyle;rounded=0;orthogonalLoop=1;jettySize=auto;html=1;exitX=0.5;exitY=1;exitDx=0;exitDy=0;entryX=0.5;entryY=0;entryDx=0;entryDy=0;" edge="1" parent="WIyWlLk6GJQsqaUBKTNV-1" source="GhVb0lr2hPTQbNGFvCIb-107" target="GhVb0lr2hPTQbNGFvCIb-108">
          <mxGeometry relative="1" as="geometry" />
        </mxCell>
        <mxCell id="GhVb0lr2hPTQbNGFvCIb-112" style="edgeStyle=orthogonalEdgeStyle;rounded=0;orthogonalLoop=1;jettySize=auto;html=1;exitX=0.5;exitY=0;exitDx=0;exitDy=0;entryX=0.5;entryY=1;entryDx=0;entryDy=0;" edge="1" parent="WIyWlLk6GJQsqaUBKTNV-1" source="GhVb0lr2hPTQbNGFvCIb-107" target="GhVb0lr2hPTQbNGFvCIb-106">
          <mxGeometry relative="1" as="geometry" />
        </mxCell>
        <mxCell id="GhVb0lr2hPTQbNGFvCIb-107" value="ProduktListe" style="rounded=0;whiteSpace=wrap;html=1;" vertex="1" parent="WIyWlLk6GJQsqaUBKTNV-1">
          <mxGeometry x="750" y="750" width="120" height="60" as="geometry" />
        </mxCell>
        <mxCell id="GhVb0lr2hPTQbNGFvCIb-110" style="edgeStyle=orthogonalEdgeStyle;rounded=0;orthogonalLoop=1;jettySize=auto;html=1;exitX=0.5;exitY=1;exitDx=0;exitDy=0;entryX=0.5;entryY=0;entryDx=0;entryDy=0;" edge="1" parent="WIyWlLk6GJQsqaUBKTNV-1" source="GhVb0lr2hPTQbNGFvCIb-108" target="GhVb0lr2hPTQbNGFvCIb-109">
          <mxGeometry relative="1" as="geometry" />
        </mxCell>
        <mxCell id="GhVb0lr2hPTQbNGFvCIb-108" value="EditProdukt" style="rounded=0;whiteSpace=wrap;html=1;" vertex="1" parent="WIyWlLk6GJQsqaUBKTNV-1">
          <mxGeometry x="750" y="870" width="120" height="60" as="geometry" />
        </mxCell>
        <mxCell id="GhVb0lr2hPTQbNGFvCIb-109" value="&lt;div&gt;Database&lt;/div&gt;&lt;div&gt;ProduktData&lt;br&gt;&lt;/div&gt;" style="rounded=0;whiteSpace=wrap;html=1;" vertex="1" parent="WIyWlLk6GJQsqaUBKTNV-1">
          <mxGeometry x="750" y="1000" width="120" height="60" as="geometry" />
        </mxCell>
        <mxCell id="GhVb0lr2hPTQbNGFvCIb-120" style="edgeStyle=orthogonalEdgeStyle;rounded=0;orthogonalLoop=1;jettySize=auto;html=1;entryX=0.5;entryY=0;entryDx=0;entryDy=0;exitX=0.5;exitY=1;exitDx=0;exitDy=0;" edge="1" parent="WIyWlLk6GJQsqaUBKTNV-1" source="GhVb0lr2hPTQbNGFvCIb-114" target="GhVb0lr2hPTQbNGFvCIb-115">
          <mxGeometry relative="1" as="geometry">
            <mxPoint x="1150" y="540" as="sourcePoint" />
          </mxGeometry>
        </mxCell>
        <mxCell id="GhVb0lr2hPTQbNGFvCIb-121" style="edgeStyle=orthogonalEdgeStyle;rounded=0;orthogonalLoop=1;jettySize=auto;html=1;exitX=0.5;exitY=1;exitDx=0;exitDy=0;entryX=0.5;entryY=0;entryDx=0;entryDy=0;" edge="1" parent="WIyWlLk6GJQsqaUBKTNV-1" source="GhVb0lr2hPTQbNGFvCIb-114" target="GhVb0lr2hPTQbNGFvCIb-116">
          <mxGeometry relative="1" as="geometry" />
        </mxCell>
        <mxCell id="GhVb0lr2hPTQbNGFvCIb-122" style="edgeStyle=orthogonalEdgeStyle;rounded=0;orthogonalLoop=1;jettySize=auto;html=1;exitX=0.5;exitY=1;exitDx=0;exitDy=0;entryX=0.5;entryY=0;entryDx=0;entryDy=0;" edge="1" parent="WIyWlLk6GJQsqaUBKTNV-1" source="GhVb0lr2hPTQbNGFvCIb-114" target="GhVb0lr2hPTQbNGFvCIb-117">
          <mxGeometry relative="1" as="geometry" />
        </mxCell>
        <mxCell id="GhVb0lr2hPTQbNGFvCIb-123" style="edgeStyle=orthogonalEdgeStyle;rounded=0;orthogonalLoop=1;jettySize=auto;html=1;exitX=0.5;exitY=1;exitDx=0;exitDy=0;entryX=0.5;entryY=0;entryDx=0;entryDy=0;" edge="1" parent="WIyWlLk6GJQsqaUBKTNV-1" source="GhVb0lr2hPTQbNGFvCIb-114" target="GhVb0lr2hPTQbNGFvCIb-119">
          <mxGeometry relative="1" as="geometry" />
        </mxCell>
        <mxCell id="GhVb0lr2hPTQbNGFvCIb-114" value="Database" style="rounded=0;whiteSpace=wrap;html=1;" vertex="1" parent="WIyWlLk6GJQsqaUBKTNV-1">
          <mxGeometry x="1050" y="390" width="120" height="60" as="geometry" />
        </mxCell>
        <mxCell id="GhVb0lr2hPTQbNGFvCIb-115" value="CompanyData" style="rounded=0;whiteSpace=wrap;html=1;" vertex="1" parent="WIyWlLk6GJQsqaUBKTNV-1">
          <mxGeometry x="900" y="580" width="120" height="60" as="geometry" />
        </mxCell>
        <mxCell id="GhVb0lr2hPTQbNGFvCIb-116" value="ProduktData" style="rounded=0;whiteSpace=wrap;html=1;" vertex="1" parent="WIyWlLk6GJQsqaUBKTNV-1">
          <mxGeometry x="1050" y="580" width="120" height="60" as="geometry" />
        </mxCell>
        <mxCell id="GhVb0lr2hPTQbNGFvCIb-117" value="KundeData" style="rounded=0;whiteSpace=wrap;html=1;" vertex="1" parent="WIyWlLk6GJQsqaUBKTNV-1">
          <mxGeometry x="1190" y="580" width="120" height="60" as="geometry" />
        </mxCell>
        <mxCell id="GhVb0lr2hPTQbNGFvCIb-119" value="SalgsData" style="rounded=0;whiteSpace=wrap;html=1;" vertex="1" parent="WIyWlLk6GJQsqaUBKTNV-1">
          <mxGeometry x="1330" y="580" width="120" height="60" as="geometry" />
        </mxCell>
        <mxCell id="NJOmPVF6yk7OS6XoPjgK-0" value="" style="endArrow=none;html=1;rounded=0;" edge="1" parent="WIyWlLk6GJQsqaUBKTNV-1">
          <mxGeometry width="50" height="50" relative="1" as="geometry">
            <mxPoint x="30" y="1110" as="sourcePoint" />
            <mxPoint x="30" y="50" as="targetPoint" />
          </mxGeometry>
        </mxCell>
        <mxCell id="NJOmPVF6yk7OS6XoPjgK-1" value="&lt;font style=&quot;font-size: 26px;&quot;&gt;ClassDiagram&lt;/font&gt;" style="rounded=0;whiteSpace=wrap;html=1;" vertex="1" parent="WIyWlLk6GJQsqaUBKTNV-1">
          <mxGeometry x="455" width="190" height="60" as="geometry" />
        </mxCell>
        <mxCell id="NJOmPVF6yk7OS6XoPjgK-3" value="&lt;font style=&quot;font-size: 26px;&quot;&gt;DataBaseDiagram&lt;/font&gt;" style="rounded=0;whiteSpace=wrap;html=1;" vertex="1" parent="WIyWlLk6GJQsqaUBKTNV-1">
          <mxGeometry x="-510" y="10" width="240" height="60" as="geometry" />
        </mxCell>
        <mxCell id="NJOmPVF6yk7OS6XoPjgK-4" value="Company" style="swimlane;fontStyle=0;childLayout=stackLayout;horizontal=1;startSize=30;horizontalStack=0;resizeParent=1;resizeParentMax=0;resizeLast=0;collapsible=1;marginBottom=0;whiteSpace=wrap;html=1;" vertex="1" parent="WIyWlLk6GJQsqaUBKTNV-1">
          <mxGeometry x="-610" y="120" width="280" height="270" as="geometry" />
        </mxCell>
        <mxCell id="NJOmPVF6yk7OS6XoPjgK-5" value="CompanyId PK" style="text;strokeColor=none;fillColor=none;align=left;verticalAlign=middle;spacingLeft=4;spacingRight=4;overflow=hidden;points=[[0,0.5],[1,0.5]];portConstraint=eastwest;rotatable=0;whiteSpace=wrap;html=1;" vertex="1" parent="NJOmPVF6yk7OS6XoPjgK-4">
          <mxGeometry y="30" width="280" height="30" as="geometry" />
        </mxCell>
        <mxCell id="NJOmPVF6yk7OS6XoPjgK-6" value="CompanyName NVARCHAR(32) NOT NULL" style="text;strokeColor=none;fillColor=none;align=left;verticalAlign=middle;spacingLeft=4;spacingRight=4;overflow=hidden;points=[[0,0.5],[1,0.5]];portConstraint=eastwest;rotatable=0;whiteSpace=wrap;html=1;" vertex="1" parent="NJOmPVF6yk7OS6XoPjgK-4">
          <mxGeometry y="60" width="280" height="30" as="geometry" />
        </mxCell>
        <mxCell id="NJOmPVF6yk7OS6XoPjgK-7" value="CompanyCountry NVARCHAR(30) NOT NULL" style="text;strokeColor=none;fillColor=none;align=left;verticalAlign=middle;spacingLeft=4;spacingRight=4;overflow=hidden;points=[[0,0.5],[1,0.5]];portConstraint=eastwest;rotatable=0;whiteSpace=wrap;html=1;" vertex="1" parent="NJOmPVF6yk7OS6XoPjgK-4">
          <mxGeometry y="90" width="280" height="30" as="geometry" />
        </mxCell>
        <mxCell id="NJOmPVF6yk7OS6XoPjgK-8" value="CompanyCity NVARCHAR(MAX) NOT NULL" style="text;strokeColor=none;fillColor=none;align=left;verticalAlign=middle;spacingLeft=4;spacingRight=4;overflow=hidden;points=[[0,0.5],[1,0.5]];portConstraint=eastwest;rotatable=0;whiteSpace=wrap;html=1;" vertex="1" parent="NJOmPVF6yk7OS6XoPjgK-4">
          <mxGeometry y="120" width="280" height="30" as="geometry" />
        </mxCell>
        <mxCell id="NJOmPVF6yk7OS6XoPjgK-9" value="CompanyStreet NVARCHAR(60) NOT NULL" style="text;strokeColor=none;fillColor=none;align=left;verticalAlign=middle;spacingLeft=4;spacingRight=4;overflow=hidden;points=[[0,0.5],[1,0.5]];portConstraint=eastwest;rotatable=0;whiteSpace=wrap;html=1;" vertex="1" parent="NJOmPVF6yk7OS6XoPjgK-4">
          <mxGeometry y="150" width="280" height="30" as="geometry" />
        </mxCell>
        <mxCell id="NJOmPVF6yk7OS6XoPjgK-10" value="CompanyHousnumber NVARCHAR(10) NOT NULL" style="text;strokeColor=none;fillColor=none;align=left;verticalAlign=middle;spacingLeft=4;spacingRight=4;overflow=hidden;points=[[0,0.5],[1,0.5]];portConstraint=eastwest;rotatable=0;whiteSpace=wrap;html=1;" vertex="1" parent="NJOmPVF6yk7OS6XoPjgK-4">
          <mxGeometry y="180" width="280" height="30" as="geometry" />
        </mxCell>
        <mxCell id="NJOmPVF6yk7OS6XoPjgK-11" value="CompanyPostalCode NVARCHAR(10) NOT NULL" style="text;strokeColor=none;fillColor=none;align=left;verticalAlign=middle;spacingLeft=4;spacingRight=4;overflow=hidden;points=[[0,0.5],[1,0.5]];portConstraint=eastwest;rotatable=0;whiteSpace=wrap;html=1;" vertex="1" parent="NJOmPVF6yk7OS6XoPjgK-4">
          <mxGeometry y="210" width="280" height="30" as="geometry" />
        </mxCell>
        <mxCell id="NJOmPVF6yk7OS6XoPjgK-12" value="CompanyCurrency VARCHAR(10) NOT NULL" style="text;strokeColor=none;fillColor=none;align=left;verticalAlign=middle;spacingLeft=4;spacingRight=4;overflow=hidden;points=[[0,0.5],[1,0.5]];portConstraint=eastwest;rotatable=0;whiteSpace=wrap;html=1;" vertex="1" parent="NJOmPVF6yk7OS6XoPjgK-4">
          <mxGeometry y="240" width="280" height="30" as="geometry" />
        </mxCell>
        <mxCell id="NJOmPVF6yk7OS6XoPjgK-14" value="Addresse" style="swimlane;fontStyle=0;childLayout=stackLayout;horizontal=1;startSize=30;horizontalStack=0;resizeParent=1;resizeParentMax=0;resizeLast=0;collapsible=1;marginBottom=0;whiteSpace=wrap;html=1;" vertex="1" parent="WIyWlLk6GJQsqaUBKTNV-1">
          <mxGeometry x="-790" y="430" width="240" height="90" as="geometry" />
        </mxCell>
        <mxCell id="NJOmPVF6yk7OS6XoPjgK-15" value="AddressId PK" style="text;strokeColor=none;fillColor=none;align=left;verticalAlign=middle;spacingLeft=4;spacingRight=4;overflow=hidden;points=[[0,0.5],[1,0.5]];portConstraint=eastwest;rotatable=0;whiteSpace=wrap;html=1;" vertex="1" parent="NJOmPVF6yk7OS6XoPjgK-14">
          <mxGeometry y="30" width="240" height="30" as="geometry" />
        </mxCell>
        <mxCell id="NJOmPVF6yk7OS6XoPjgK-16" value="Addresser NVARCHAR(30) NOT NULL" style="text;strokeColor=none;fillColor=none;align=left;verticalAlign=middle;spacingLeft=4;spacingRight=4;overflow=hidden;points=[[0,0.5],[1,0.5]];portConstraint=eastwest;rotatable=0;whiteSpace=wrap;html=1;" vertex="1" parent="NJOmPVF6yk7OS6XoPjgK-14">
          <mxGeometry y="60" width="240" height="30" as="geometry" />
        </mxCell>
        <mxCell id="NJOmPVF6yk7OS6XoPjgK-18" value="Person" style="swimlane;fontStyle=0;childLayout=stackLayout;horizontal=1;startSize=30;horizontalStack=0;resizeParent=1;resizeParentMax=0;resizeLast=0;collapsible=1;marginBottom=0;whiteSpace=wrap;html=1;" vertex="1" parent="WIyWlLk6GJQsqaUBKTNV-1">
          <mxGeometry x="-413" y="430" width="263" height="240" as="geometry" />
        </mxCell>
        <mxCell id="NJOmPVF6yk7OS6XoPjgK-19" value="PersonId PK" style="text;strokeColor=none;fillColor=none;align=left;verticalAlign=middle;spacingLeft=4;spacingRight=4;overflow=hidden;points=[[0,0.5],[1,0.5]];portConstraint=eastwest;rotatable=0;whiteSpace=wrap;html=1;" vertex="1" parent="NJOmPVF6yk7OS6XoPjgK-18">
          <mxGeometry y="30" width="263" height="30" as="geometry" />
        </mxCell>
        <mxCell id="NJOmPVF6yk7OS6XoPjgK-20" value="Navn NVARCHAR(64) NOT NULL" style="text;strokeColor=none;fillColor=none;align=left;verticalAlign=middle;spacingLeft=4;spacingRight=4;overflow=hidden;points=[[0,0.5],[1,0.5]];portConstraint=eastwest;rotatable=0;whiteSpace=wrap;html=1;" vertex="1" parent="NJOmPVF6yk7OS6XoPjgK-18">
          <mxGeometry y="60" width="263" height="30" as="geometry" />
        </mxCell>
        <mxCell id="NJOmPVF6yk7OS6XoPjgK-21" value="&lt;div&gt;Fornavn NVARCHAR(32) NOT NULL&lt;/div&gt;" style="text;strokeColor=none;fillColor=none;align=left;verticalAlign=middle;spacingLeft=4;spacingRight=4;overflow=hidden;points=[[0,0.5],[1,0.5]];portConstraint=eastwest;rotatable=0;whiteSpace=wrap;html=1;" vertex="1" parent="NJOmPVF6yk7OS6XoPjgK-18">
          <mxGeometry y="90" width="263" height="30" as="geometry" />
        </mxCell>
        <mxCell id="NJOmPVF6yk7OS6XoPjgK-22" value="&lt;div&gt;Efternavn NVARCHAR(32) NOT NULL&lt;/div&gt;" style="text;strokeColor=none;fillColor=none;align=left;verticalAlign=middle;spacingLeft=4;spacingRight=4;overflow=hidden;points=[[0,0.5],[1,0.5]];portConstraint=eastwest;rotatable=0;whiteSpace=wrap;html=1;" vertex="1" parent="NJOmPVF6yk7OS6XoPjgK-18">
          <mxGeometry y="120" width="263" height="30" as="geometry" />
        </mxCell>
        <mxCell id="NJOmPVF6yk7OS6XoPjgK-23" value="&lt;div&gt;Tlfnummer NVARCHAR(16) NOT NULL&lt;/div&gt;" style="text;strokeColor=none;fillColor=none;align=left;verticalAlign=middle;spacingLeft=4;spacingRight=4;overflow=hidden;points=[[0,0.5],[1,0.5]];portConstraint=eastwest;rotatable=0;whiteSpace=wrap;html=1;" vertex="1" parent="NJOmPVF6yk7OS6XoPjgK-18">
          <mxGeometry y="150" width="263" height="30" as="geometry" />
        </mxCell>
        <mxCell id="NJOmPVF6yk7OS6XoPjgK-24" value="&lt;div&gt;Mail NVARCHAR(32) NOT NULL&lt;/div&gt;" style="text;strokeColor=none;fillColor=none;align=left;verticalAlign=middle;spacingLeft=4;spacingRight=4;overflow=hidden;points=[[0,0.5],[1,0.5]];portConstraint=eastwest;rotatable=0;whiteSpace=wrap;html=1;" vertex="1" parent="NJOmPVF6yk7OS6XoPjgK-18">
          <mxGeometry y="180" width="263" height="30" as="geometry" />
        </mxCell>
        <mxCell id="NJOmPVF6yk7OS6XoPjgK-25" value="AddressId FK" style="text;strokeColor=none;fillColor=none;align=left;verticalAlign=middle;spacingLeft=4;spacingRight=4;overflow=hidden;points=[[0,0.5],[1,0.5]];portConstraint=eastwest;rotatable=0;whiteSpace=wrap;html=1;" vertex="1" parent="NJOmPVF6yk7OS6XoPjgK-18">
          <mxGeometry y="210" width="263" height="30" as="geometry" />
        </mxCell>
        <mxCell id="NJOmPVF6yk7OS6XoPjgK-26" style="edgeStyle=orthogonalEdgeStyle;rounded=0;orthogonalLoop=1;jettySize=auto;html=1;exitX=0;exitY=0.5;exitDx=0;exitDy=0;entryX=1;entryY=0.5;entryDx=0;entryDy=0;" edge="1" parent="WIyWlLk6GJQsqaUBKTNV-1" source="NJOmPVF6yk7OS6XoPjgK-25" target="NJOmPVF6yk7OS6XoPjgK-15">
          <mxGeometry relative="1" as="geometry" />
        </mxCell>
        <mxCell id="NJOmPVF6yk7OS6XoPjgK-27" value="Kunde" style="swimlane;fontStyle=0;childLayout=stackLayout;horizontal=1;startSize=30;horizontalStack=0;resizeParent=1;resizeParentMax=0;resizeLast=0;collapsible=1;marginBottom=0;whiteSpace=wrap;html=1;" vertex="1" parent="WIyWlLk6GJQsqaUBKTNV-1">
          <mxGeometry x="-413" y="690" width="263" height="150" as="geometry" />
        </mxCell>
        <mxCell id="NJOmPVF6yk7OS6XoPjgK-28" value="AddressId FK" style="text;strokeColor=none;fillColor=none;align=left;verticalAlign=middle;spacingLeft=4;spacingRight=4;overflow=hidden;points=[[0,0.5],[1,0.5]];portConstraint=eastwest;rotatable=0;whiteSpace=wrap;html=1;" vertex="1" parent="NJOmPVF6yk7OS6XoPjgK-27">
          <mxGeometry y="30" width="263" height="30" as="geometry" />
        </mxCell>
        <mxCell id="NJOmPVF6yk7OS6XoPjgK-29" value="PersonId FK" style="text;strokeColor=none;fillColor=none;align=left;verticalAlign=middle;spacingLeft=4;spacingRight=4;overflow=hidden;points=[[0,0.5],[1,0.5]];portConstraint=eastwest;rotatable=0;whiteSpace=wrap;html=1;" vertex="1" parent="NJOmPVF6yk7OS6XoPjgK-27">
          <mxGeometry y="60" width="263" height="30" as="geometry" />
        </mxCell>
        <mxCell id="NJOmPVF6yk7OS6XoPjgK-30" value="KundeNummer PK" style="text;strokeColor=none;fillColor=none;align=left;verticalAlign=middle;spacingLeft=4;spacingRight=4;overflow=hidden;points=[[0,0.5],[1,0.5]];portConstraint=eastwest;rotatable=0;whiteSpace=wrap;html=1;" vertex="1" parent="NJOmPVF6yk7OS6XoPjgK-27">
          <mxGeometry y="90" width="263" height="30" as="geometry" />
        </mxCell>
        <mxCell id="NJOmPVF6yk7OS6XoPjgK-31" value="KundeDate NVARCHAR(20) NOT NULL" style="text;strokeColor=none;fillColor=none;align=left;verticalAlign=middle;spacingLeft=4;spacingRight=4;overflow=hidden;points=[[0,0.5],[1,0.5]];portConstraint=eastwest;rotatable=0;whiteSpace=wrap;html=1;" vertex="1" parent="NJOmPVF6yk7OS6XoPjgK-27">
          <mxGeometry y="120" width="263" height="30" as="geometry" />
        </mxCell>
        <mxCell id="NJOmPVF6yk7OS6XoPjgK-34" style="edgeStyle=orthogonalEdgeStyle;rounded=0;orthogonalLoop=1;jettySize=auto;html=1;exitX=1;exitY=0.5;exitDx=0;exitDy=0;entryX=1;entryY=0.5;entryDx=0;entryDy=0;" edge="1" parent="WIyWlLk6GJQsqaUBKTNV-1" source="NJOmPVF6yk7OS6XoPjgK-29" target="NJOmPVF6yk7OS6XoPjgK-19">
          <mxGeometry relative="1" as="geometry" />
        </mxCell>
        <mxCell id="NJOmPVF6yk7OS6XoPjgK-35" style="edgeStyle=orthogonalEdgeStyle;rounded=0;orthogonalLoop=1;jettySize=auto;html=1;exitX=0;exitY=0.5;exitDx=0;exitDy=0;entryX=1;entryY=0.5;entryDx=0;entryDy=0;" edge="1" parent="WIyWlLk6GJQsqaUBKTNV-1" source="NJOmPVF6yk7OS6XoPjgK-28" target="NJOmPVF6yk7OS6XoPjgK-15">
          <mxGeometry relative="1" as="geometry" />
        </mxCell>
        <mxCell id="NJOmPVF6yk7OS6XoPjgK-37" value="Salgsordre" style="swimlane;fontStyle=0;childLayout=stackLayout;horizontal=1;startSize=30;horizontalStack=0;resizeParent=1;resizeParentMax=0;resizeLast=0;collapsible=1;marginBottom=0;whiteSpace=wrap;html=1;" vertex="1" parent="WIyWlLk6GJQsqaUBKTNV-1">
          <mxGeometry x="-780" y="690" width="270" height="270" as="geometry" />
        </mxCell>
        <mxCell id="NJOmPVF6yk7OS6XoPjgK-38" value="OrderNumber PK" style="text;strokeColor=none;fillColor=none;align=left;verticalAlign=middle;spacingLeft=4;spacingRight=4;overflow=hidden;points=[[0,0.5],[1,0.5]];portConstraint=eastwest;rotatable=0;whiteSpace=wrap;html=1;" vertex="1" parent="NJOmPVF6yk7OS6XoPjgK-37">
          <mxGeometry y="30" width="270" height="30" as="geometry" />
        </mxCell>
        <mxCell id="NJOmPVF6yk7OS6XoPjgK-39" value="KundeNummer FK" style="text;strokeColor=none;fillColor=none;align=left;verticalAlign=middle;spacingLeft=4;spacingRight=4;overflow=hidden;points=[[0,0.5],[1,0.5]];portConstraint=eastwest;rotatable=0;whiteSpace=wrap;html=1;" vertex="1" parent="NJOmPVF6yk7OS6XoPjgK-37">
          <mxGeometry y="60" width="270" height="30" as="geometry" />
        </mxCell>
        <mxCell id="Og6TSXoUTX3f1wffLhYA-0" value="Dato varchar(32) NOT NULL" style="text;strokeColor=none;fillColor=none;align=left;verticalAlign=middle;spacingLeft=4;spacingRight=4;overflow=hidden;points=[[0,0.5],[1,0.5]];portConstraint=eastwest;rotatable=0;whiteSpace=wrap;html=1;" vertex="1" parent="NJOmPVF6yk7OS6XoPjgK-37">
          <mxGeometry y="90" width="270" height="30" as="geometry" />
        </mxCell>
        <mxCell id="Og6TSXoUTX3f1wffLhYA-1" value="KundeNavn VARCHAR(64) NOT NULL" style="text;strokeColor=none;fillColor=none;align=left;verticalAlign=middle;spacingLeft=4;spacingRight=4;overflow=hidden;points=[[0,0.5],[1,0.5]];portConstraint=eastwest;rotatable=0;whiteSpace=wrap;html=1;" vertex="1" parent="NJOmPVF6yk7OS6XoPjgK-37">
          <mxGeometry y="120" width="270" height="30" as="geometry" />
        </mxCell>
        <mxCell id="Og6TSXoUTX3f1wffLhYA-2" value="&lt;span&gt;&lt;span dir=&quot;ltr&quot; class=&quot;ui-provider bbj bbk bae bbl bbm bbn bbo bbp bbq bbr bbs bbt bbu bbv bbw bbx bby bbz bca bcb bcc bcd bce bcf bcg bch bci bcj bck bcl bcm bcn bco bcp bcq&quot;&gt;Ordrebeløb decimal(18, 0) NOT NULL&lt;/span&gt;&lt;/span&gt;" style="text;strokeColor=none;fillColor=none;align=left;verticalAlign=middle;spacingLeft=4;spacingRight=4;overflow=hidden;points=[[0,0.5],[1,0.5]];portConstraint=eastwest;rotatable=0;whiteSpace=wrap;html=1;" vertex="1" parent="NJOmPVF6yk7OS6XoPjgK-37">
          <mxGeometry y="150" width="270" height="30" as="geometry" />
        </mxCell>
        <mxCell id="Og6TSXoUTX3f1wffLhYA-3" value="&lt;span&gt;&lt;span dir=&quot;ltr&quot; class=&quot;ui-provider bbj bbk bae bbl bbm bbn bbo bbp bbq bbr bbs bbt bbu bbv bbw bbx bby bbz bca bcb bcc bcd bce bcf bcg bch bci bcj bck bcl bcm bcn bco bcp bcq&quot;&gt;Tilstand VARCHAR(16) NOT NULL&lt;/span&gt;&lt;/span&gt;" style="text;strokeColor=none;fillColor=none;align=left;verticalAlign=middle;spacingLeft=4;spacingRight=4;overflow=hidden;points=[[0,0.5],[1,0.5]];portConstraint=eastwest;rotatable=0;whiteSpace=wrap;html=1;" vertex="1" parent="NJOmPVF6yk7OS6XoPjgK-37">
          <mxGeometry y="180" width="270" height="30" as="geometry" />
        </mxCell>
        <mxCell id="Og6TSXoUTX3f1wffLhYA-4" value="&lt;span&gt;&lt;span dir=&quot;ltr&quot; class=&quot;ui-provider bbj bbk bae bbl bbm bbn bbo bbp bbq bbr bbs bbt bbu bbv bbw bbx bby bbz bca bcb bcc bcd bce bcf bcg bch bci bcj bck bcl bcm bcn bco bcp bcq&quot;&gt;Oprettelsestidspunkt VARCHAR(32)&lt;/span&gt;&lt;/span&gt;" style="text;strokeColor=none;fillColor=none;align=left;verticalAlign=middle;spacingLeft=4;spacingRight=4;overflow=hidden;points=[[0,0.5],[1,0.5]];portConstraint=eastwest;rotatable=0;whiteSpace=wrap;html=1;" vertex="1" parent="NJOmPVF6yk7OS6XoPjgK-37">
          <mxGeometry y="210" width="270" height="30" as="geometry" />
        </mxCell>
        <mxCell id="NJOmPVF6yk7OS6XoPjgK-40" value="&lt;span&gt;&lt;span dir=&quot;ltr&quot; class=&quot;ui-provider bbj bbk bae bbl bbm bbn bbo bbp bbq bbr bbs bbt bbu bbv bbw bbx bby bbz bca bcb bcc bcd bce bcf bcg bch bci bcj bck bcl bcm bcn bco bcp bcq&quot;&gt;Gennemførelsestidspunkt VARCHAR(32)&lt;/span&gt;&lt;/span&gt;" style="text;strokeColor=none;fillColor=none;align=left;verticalAlign=middle;spacingLeft=4;spacingRight=4;overflow=hidden;points=[[0,0.5],[1,0.5]];portConstraint=eastwest;rotatable=0;whiteSpace=wrap;html=1;" vertex="1" parent="NJOmPVF6yk7OS6XoPjgK-37">
          <mxGeometry y="240" width="270" height="30" as="geometry" />
        </mxCell>
        <mxCell id="NJOmPVF6yk7OS6XoPjgK-42" style="edgeStyle=orthogonalEdgeStyle;rounded=0;orthogonalLoop=1;jettySize=auto;html=1;exitX=1;exitY=0.5;exitDx=0;exitDy=0;entryX=0;entryY=0.5;entryDx=0;entryDy=0;" edge="1" parent="WIyWlLk6GJQsqaUBKTNV-1" source="NJOmPVF6yk7OS6XoPjgK-39" target="NJOmPVF6yk7OS6XoPjgK-30">
          <mxGeometry relative="1" as="geometry" />
        </mxCell>
        <mxCell id="NJOmPVF6yk7OS6XoPjgK-46" value="Produkt" style="swimlane;fontStyle=0;childLayout=stackLayout;horizontal=1;startSize=30;horizontalStack=0;resizeParent=1;resizeParentMax=0;resizeLast=0;collapsible=1;marginBottom=0;whiteSpace=wrap;html=1;" vertex="1" parent="WIyWlLk6GJQsqaUBKTNV-1">
          <mxGeometry x="-1080" y="120" width="250" height="360" as="geometry" />
        </mxCell>
        <mxCell id="NJOmPVF6yk7OS6XoPjgK-47" value="ProduktId PK" style="text;strokeColor=none;fillColor=none;align=left;verticalAlign=middle;spacingLeft=4;spacingRight=4;overflow=hidden;points=[[0,0.5],[1,0.5]];portConstraint=eastwest;rotatable=0;whiteSpace=wrap;html=1;" vertex="1" parent="NJOmPVF6yk7OS6XoPjgK-46">
          <mxGeometry y="30" width="250" height="30" as="geometry" />
        </mxCell>
        <mxCell id="NJOmPVF6yk7OS6XoPjgK-48" value="Varenummer INT" style="text;strokeColor=none;fillColor=none;align=left;verticalAlign=middle;spacingLeft=4;spacingRight=4;overflow=hidden;points=[[0,0.5],[1,0.5]];portConstraint=eastwest;rotatable=0;whiteSpace=wrap;html=1;" vertex="1" parent="NJOmPVF6yk7OS6XoPjgK-46">
          <mxGeometry y="60" width="250" height="30" as="geometry" />
        </mxCell>
        <mxCell id="NJOmPVF6yk7OS6XoPjgK-49" value="Navn VARCHAR(32)" style="text;strokeColor=none;fillColor=none;align=left;verticalAlign=middle;spacingLeft=4;spacingRight=4;overflow=hidden;points=[[0,0.5],[1,0.5]];portConstraint=eastwest;rotatable=0;whiteSpace=wrap;html=1;" vertex="1" parent="NJOmPVF6yk7OS6XoPjgK-46">
          <mxGeometry y="90" width="250" height="30" as="geometry" />
        </mxCell>
        <mxCell id="NJOmPVF6yk7OS6XoPjgK-50" value="Beskrivelse VARCHAR(64)" style="text;strokeColor=none;fillColor=none;align=left;verticalAlign=middle;spacingLeft=4;spacingRight=4;overflow=hidden;points=[[0,0.5],[1,0.5]];portConstraint=eastwest;rotatable=0;whiteSpace=wrap;html=1;" vertex="1" parent="NJOmPVF6yk7OS6XoPjgK-46">
          <mxGeometry y="120" width="250" height="30" as="geometry" />
        </mxCell>
        <mxCell id="NJOmPVF6yk7OS6XoPjgK-51" value="Salgspris decimal(18, 0)" style="text;strokeColor=none;fillColor=none;align=left;verticalAlign=middle;spacingLeft=4;spacingRight=4;overflow=hidden;points=[[0,0.5],[1,0.5]];portConstraint=eastwest;rotatable=0;whiteSpace=wrap;html=1;" vertex="1" parent="NJOmPVF6yk7OS6XoPjgK-46">
          <mxGeometry y="150" width="250" height="30" as="geometry" />
        </mxCell>
        <mxCell id="NJOmPVF6yk7OS6XoPjgK-52" value="Indkoebspris decimal(18, 0)" style="text;strokeColor=none;fillColor=none;align=left;verticalAlign=middle;spacingLeft=4;spacingRight=4;overflow=hidden;points=[[0,0.5],[1,0.5]];portConstraint=eastwest;rotatable=0;whiteSpace=wrap;html=1;" vertex="1" parent="NJOmPVF6yk7OS6XoPjgK-46">
          <mxGeometry y="180" width="250" height="30" as="geometry" />
        </mxCell>
        <mxCell id="NJOmPVF6yk7OS6XoPjgK-53" value="Lokation varchar(4)" style="text;strokeColor=none;fillColor=none;align=left;verticalAlign=middle;spacingLeft=4;spacingRight=4;overflow=hidden;points=[[0,0.5],[1,0.5]];portConstraint=eastwest;rotatable=0;whiteSpace=wrap;html=1;" vertex="1" parent="NJOmPVF6yk7OS6XoPjgK-46">
          <mxGeometry y="210" width="250" height="30" as="geometry" />
        </mxCell>
        <mxCell id="NJOmPVF6yk7OS6XoPjgK-54" value="&amp;nbsp;Antalpaalager decimal(18, 0)" style="text;strokeColor=none;fillColor=none;align=left;verticalAlign=middle;spacingLeft=4;spacingRight=4;overflow=hidden;points=[[0,0.5],[1,0.5]];portConstraint=eastwest;rotatable=0;whiteSpace=wrap;html=1;" vertex="1" parent="NJOmPVF6yk7OS6XoPjgK-46">
          <mxGeometry y="240" width="250" height="30" as="geometry" />
        </mxCell>
        <mxCell id="NJOmPVF6yk7OS6XoPjgK-55" value="Enhed varchar(5)" style="text;strokeColor=none;fillColor=none;align=left;verticalAlign=middle;spacingLeft=4;spacingRight=4;overflow=hidden;points=[[0,0.5],[1,0.5]];portConstraint=eastwest;rotatable=0;whiteSpace=wrap;html=1;" vertex="1" parent="NJOmPVF6yk7OS6XoPjgK-46">
          <mxGeometry y="270" width="250" height="30" as="geometry" />
        </mxCell>
        <mxCell id="NJOmPVF6yk7OS6XoPjgK-57" value="Avance decimal(18, 0)" style="text;strokeColor=none;fillColor=none;align=left;verticalAlign=middle;spacingLeft=4;spacingRight=4;overflow=hidden;points=[[0,0.5],[1,0.5]];portConstraint=eastwest;rotatable=0;whiteSpace=wrap;html=1;" vertex="1" parent="NJOmPVF6yk7OS6XoPjgK-46">
          <mxGeometry y="300" width="250" height="30" as="geometry" />
        </mxCell>
        <mxCell id="NJOmPVF6yk7OS6XoPjgK-56" value="Fortjeneste decimal(18, 0)" style="text;strokeColor=none;fillColor=none;align=left;verticalAlign=middle;spacingLeft=4;spacingRight=4;overflow=hidden;points=[[0,0.5],[1,0.5]];portConstraint=eastwest;rotatable=0;whiteSpace=wrap;html=1;" vertex="1" parent="NJOmPVF6yk7OS6XoPjgK-46">
          <mxGeometry y="330" width="250" height="30" as="geometry" />
        </mxCell>
        <mxCell id="Og6TSXoUTX3f1wffLhYA-5" value="Database" style="text;html=1;align=center;verticalAlign=middle;whiteSpace=wrap;rounded=0;" vertex="1" parent="WIyWlLk6GJQsqaUBKTNV-1">
          <mxGeometry x="810" y="950" width="60" height="30" as="geometry" />
        </mxCell>
        <mxCell id="Og6TSXoUTX3f1wffLhYA-6" value="UI " style="text;html=1;align=center;verticalAlign=middle;whiteSpace=wrap;rounded=0;" vertex="1" parent="WIyWlLk6GJQsqaUBKTNV-1">
          <mxGeometry x="750" y="630" width="30" height="30" as="geometry" />
        </mxCell>
      </root>
    </mxGraphModel>
  </diagram>
</mxfile>
